<svg width="60" height="24" viewBox="0 0 60 24" fill="none" xmlns="http://www.w3.org/2000/svg">
<g clip-path="url(#clip0)">
<path fill-rule="evenodd" clip-rule="evenodd" d="M55.8421 10.0877C55.8421 9.47549 56.3254 8.95993 56.9377 8.95993C57.5499 8.95993 58.0332 9.47549 58.0332 10.0877C58.0332 10.6999 57.5499 11.2155 56.9377 11.2155C56.3254 11.2477 55.8421 10.7322 55.8421 10.0877ZM56.9054 10.9899C57.3565 10.9899 57.7432 10.6033 57.7432 10.1199C57.7432 9.6366 57.3565 9.24993 56.9054 9.24993C56.4543 9.24993 56.0677 9.6366 56.0677 10.1199C56.0677 10.6033 56.4543 10.9899 56.9054 10.9899ZM56.7765 10.6033H56.551V9.60437H56.9699C57.0665 9.60437 57.1632 9.60437 57.2277 9.66882C57.3243 9.73326 57.3565 9.82993 57.3565 9.9266C57.3565 10.0555 57.2921 10.1522 57.1954 10.1844L57.3888 10.6355H57.0665L56.9054 10.2488H56.7443V10.6033H56.7765ZM56.7765 10.0233H56.9054C56.9699 10.0233 57.0021 10.0233 57.0343 9.99104C57.0665 9.95882 57.0988 9.9266 57.0988 9.86215C57.0988 9.82993 57.0665 9.76549 57.0343 9.76549C57.0021 9.73326 56.9377 9.73326 56.9054 9.73326H56.7765V10.0233Z" fill="#C2CFE0"/>
<path fill-rule="evenodd" clip-rule="evenodd" d="M40.2143 2.45105L39.9243 4.41661C39.2799 4.06217 38.7965 3.93328 38.281 3.93328C36.9277 3.93328 35.961 5.31883 35.961 7.28439C35.961 8.63772 36.6054 9.4755 37.6688 9.4755C38.1199 9.4755 38.6032 9.31439 39.2154 9.02439L38.8932 11.0866C38.2165 11.2799 37.7977 11.3444 37.2821 11.3444C35.3165 11.3444 34.0921 9.86216 34.0921 7.47772C34.0921 4.2555 35.7677 2.03217 38.2165 2.03217C38.5388 2.03217 38.7965 2.06439 39.0543 2.12883L39.8277 2.32217C39.9888 2.38661 40.0532 2.38661 40.2143 2.45105Z" fill="#C2CFE0"/>
<path fill-rule="evenodd" clip-rule="evenodd" d="M34.1245 3.80444C34.06 3.77222 33.9956 3.77222 33.9311 3.77222C33.3511 3.77222 32.9967 4.09444 32.4167 4.96444L32.5778 3.86888H30.9667L29.8389 11.1511H31.6756C32.3522 6.67222 32.5133 5.93111 33.3833 5.93111C33.4478 5.93111 33.4478 5.93111 33.5122 5.93111C33.6733 5.06111 33.8989 4.41666 34.2211 3.80444H34.1245Z" fill="#C2CFE0"/>
<path fill-rule="evenodd" clip-rule="evenodd" d="M23.2011 11.0545C22.7178 11.2156 22.2989 11.3123 21.88 11.3123C20.9455 11.3123 20.43 10.7645 20.43 9.70119C20.43 9.50785 20.4622 9.2823 20.4944 9.02452L20.6233 8.31563L20.72 7.73563L21.5255 2.77341H23.33L23.1044 3.83674H24.0389L23.7811 5.60896H22.8466L22.3633 8.63785C22.3311 8.76674 22.3311 8.86341 22.3311 8.92785C22.3311 9.31452 22.5244 9.47563 22.9433 9.47563C23.1689 9.47563 23.2978 9.44341 23.4266 9.41119L23.2011 11.0545Z" fill="#C2CFE0"/>
<path fill-rule="evenodd" clip-rule="evenodd" d="M16.0156 6.15662C16.0156 7.09106 16.4345 7.70328 17.4011 8.18662C18.1422 8.54106 18.2711 8.66995 18.2711 8.99217C18.2711 9.44328 17.9489 9.66884 17.24 9.66884C16.6922 9.66884 16.2089 9.57217 15.5967 9.37884L15.3389 11.0544L15.4356 11.0866L15.7578 11.1511C15.8867 11.1833 16.0156 11.2155 16.2411 11.2155C16.66 11.2477 17.0145 11.2799 17.24 11.2799C19.1733 11.2799 20.0433 10.5066 20.0433 8.86328C20.0433 7.86439 19.6889 7.2844 18.7545 6.83328C17.9811 6.47884 17.9167 6.38217 17.9167 6.02773C17.9167 5.64106 18.2067 5.44773 18.8189 5.44773C19.1733 5.44773 19.6567 5.51217 20.14 5.57662L20.3978 3.90106C19.9145 3.8044 19.2056 3.73995 18.7867 3.73995C16.6922 3.70773 15.9833 4.80328 16.0156 6.15662Z" fill="#C2CFE0"/>
<path fill-rule="evenodd" clip-rule="evenodd" d="M54.7788 11.1511H53.0388L53.1354 10.4422C52.6521 10.99 52.1043 11.2478 51.4599 11.2478C50.1065 11.2478 49.2365 10.0555 49.2365 8.21888C49.2365 5.80221 50.5899 3.73999 52.201 3.73999C52.9099 3.73999 53.4254 4.06221 53.941 4.73888L54.3277 2.1611H56.1321L54.7788 11.1511ZM52.0721 9.44333C52.9421 9.44333 53.5221 8.44444 53.5221 6.99444C53.5221 6.05999 53.1677 5.54444 52.5554 5.54444C51.7177 5.54444 51.1377 6.57555 51.1377 7.99332C51.1377 8.92777 51.4599 9.44333 52.0721 9.44333Z" fill="#C2CFE0"/>
<path fill-rule="evenodd" clip-rule="evenodd" d="M29.0011 10.9899C28.3889 11.1833 27.7767 11.2799 27.1322 11.2799C25.1022 11.2799 24.0389 10.1522 24.0389 7.99328C24.0389 5.47995 25.3922 3.64328 27.2289 3.64328C28.7433 3.64328 29.6778 4.67439 29.6778 6.31772C29.6778 6.83328 29.6133 7.38106 29.4522 8.12217H25.7789C25.7467 8.25106 25.7467 8.28328 25.7467 8.34772C25.7467 9.21772 26.2944 9.63661 27.3578 9.63661C28.0022 9.63661 28.5822 9.4755 29.2589 9.1855L29.0011 10.9899ZM27.97 6.63995C28.0022 6.47884 28.0022 6.34995 28.0022 6.2855C28.0022 5.7055 27.68 5.35106 27.1322 5.35106C26.5522 5.35106 26.1333 5.80217 25.9722 6.67217H27.97V6.63995Z" fill="#C2CFE0"/>
<path fill-rule="evenodd" clip-rule="evenodd" d="M8.66883 11.151H6.86438L7.8955 4.25549L5.54327 11.151H4.31883L4.15772 4.28771L3.06216 11.151H1.35439L2.77216 2.19327H5.38216L5.47883 7.73549L7.25105 2.19327H10.0866L8.66883 11.151Z" fill="#C2CFE0"/>
<path fill-rule="evenodd" clip-rule="evenodd" d="M13.3732 7.89647C13.1799 7.86425 13.0832 7.86425 12.9543 7.86425C11.9232 7.86425 11.4077 8.25091 11.4077 8.9598C11.4077 9.41091 11.6654 9.70091 12.0843 9.70091C12.7932 9.73313 13.341 8.9598 13.3732 7.89647ZM14.6943 11.1509H13.1799L13.2121 10.3776C12.761 10.9898 12.1488 11.2476 11.2788 11.2476C10.2799 11.2476 9.60321 10.442 9.60321 9.2498C9.60321 7.47758 10.7954 6.44647 12.8254 6.44647C13.051 6.44647 13.3088 6.47869 13.5665 6.51091C13.631 6.25314 13.631 6.15647 13.631 6.02758C13.631 5.54425 13.3088 5.35091 12.471 5.35091C11.9554 5.35091 11.3754 5.44758 10.9565 5.57647L10.731 5.67314L10.5699 5.73758L10.8277 4.09425C11.7299 3.80425 12.3421 3.70758 13.0188 3.70758C14.5977 3.70758 15.4032 4.44869 15.4032 5.83425C15.4032 6.18869 15.371 6.44647 15.2421 7.28425L14.8554 9.86202L14.791 10.3131L14.7588 10.6998L14.7265 10.9576L14.6943 11.1509Z" fill="#C2CFE0"/>
<path fill-rule="evenodd" clip-rule="evenodd" d="M43.3722 7.89656C43.1789 7.86433 43.0822 7.86434 42.9533 7.86434C41.9222 7.86434 41.3744 8.251 41.3744 8.95989C41.3744 9.411 41.6322 9.701 42.0511 9.701C42.7922 9.73322 43.34 8.95989 43.3722 7.89656ZM44.6933 11.151H43.1789L43.2111 10.3777C42.76 10.9899 42.1478 11.2477 41.2778 11.2477C40.2789 11.2477 39.6022 10.4421 39.6022 9.24989C39.6022 7.47767 40.7944 6.44656 42.8244 6.44656C43.0178 6.44656 43.3078 6.47878 43.5655 6.511C43.63 6.25322 43.63 6.15656 43.63 6.02767C43.63 5.54433 43.3078 5.351 42.47 5.351C41.9544 5.351 41.3744 5.44767 40.9555 5.57656L40.6978 5.641L40.5366 5.70545L40.7944 4.06211C41.6966 3.77211 42.3089 3.67545 42.9855 3.67545C44.5644 3.67545 45.37 4.41656 45.37 5.80211C45.37 6.15656 45.3378 6.41433 45.2089 7.25211L44.8222 9.82989L44.7578 10.281L44.6933 10.6354L44.6611 10.8932L44.6933 11.151Z" fill="#C2CFE0"/>
<path fill-rule="evenodd" clip-rule="evenodd" d="M49.7844 3.80444C49.72 3.77222 49.6556 3.77222 49.5911 3.77222C49.0111 3.77222 48.6567 4.09444 48.0767 4.96444L48.2378 3.86888H46.5945L45.4667 11.1511H47.3033C47.98 6.67222 48.1411 5.93111 49.0111 5.93111C49.0756 5.93111 49.0756 5.93111 49.14 5.93111C49.3011 5.06111 49.5267 4.41666 49.8489 3.80444H49.7844Z" fill="#C2CFE0"/>
<path fill-rule="evenodd" clip-rule="evenodd" d="M42.1156 18.2399C42.1156 19.8832 41.6 20.8821 40.7945 20.8821C40.2145 20.9143 39.86 20.2377 39.86 19.271C39.86 18.111 40.3756 16.7899 41.2134 16.7899C41.89 16.7577 42.1156 17.4666 42.1156 18.2399ZM43.92 18.2399C43.92 16.4032 43.0178 14.9532 41.31 14.9532C39.3445 14.9532 38.0556 16.6932 38.0556 19.2388C38.0556 21.0754 38.8289 22.5899 40.6656 22.5899C42.5667 22.6221 43.92 21.301 43.92 18.2399Z" fill="#C2CFE0"/>
<path fill-rule="evenodd" clip-rule="evenodd" d="M38.6677 13.6967L38.3777 15.6622C37.7655 15.3078 37.3466 15.1789 36.8633 15.1789C35.6066 15.1789 34.7044 16.5645 34.7044 18.53C34.7044 19.8834 35.2844 20.7211 36.2833 20.7211C36.7022 20.7211 37.1855 20.56 37.7333 20.27L37.4433 22.3322C36.8311 22.5256 36.4122 22.59 35.9288 22.59C34.0922 22.59 32.9322 21.1078 32.9322 18.7234C32.9322 15.5011 34.5111 13.2778 36.7988 13.2778C37.0888 13.2778 37.3466 13.31 37.5722 13.3745L38.2811 13.5678C38.4422 13.6 38.5066 13.6322 38.6677 13.6967Z" fill="#C2CFE0"/>
<path fill-rule="evenodd" clip-rule="evenodd" d="M27.3577 15.0176C27.2933 14.9854 27.2289 14.9854 27.1644 14.9854C26.6166 14.9854 26.2944 15.3076 25.7466 16.1776L25.9077 15.082H24.3611L23.33 22.3643H25.0377C25.6822 17.9176 25.8433 17.1443 26.6489 17.1443C26.7133 17.1443 26.7133 17.1443 26.7777 17.1765C26.9389 16.3065 27.1322 15.662 27.4222 15.0498L27.3577 15.0176Z" fill="#C2CFE0"/>
<path fill-rule="evenodd" clip-rule="evenodd" d="M49.6556 22.2999H48.0444L48.1411 21.591C47.69 22.1388 47.1744 22.3966 46.5622 22.3966C45.3378 22.3966 44.5 21.2044 44.5 19.3677C44.5 16.951 45.7889 14.8888 47.2711 14.8888C47.9478 14.8888 48.4311 15.211 48.9144 15.8877L49.3011 13.3099H50.9767L49.6556 22.2999ZM47.11 20.5922C47.9156 20.5922 48.4633 19.5933 48.4633 18.1433C48.4633 17.2088 48.1411 16.7255 47.5611 16.7255C46.7878 16.7255 46.24 17.7244 46.24 19.1744C46.24 20.1088 46.53 20.5922 47.11 20.5922Z" fill="#C2CFE0"/>
<path fill-rule="evenodd" clip-rule="evenodd" d="M11.3755 22.2677C10.7955 22.4611 10.2477 22.5577 9.63552 22.5577C7.73441 22.5577 6.73552 21.4299 6.73552 19.2711C6.73552 16.7899 7.99219 14.9211 9.69996 14.9211C11.1177 14.9211 11.9877 15.9522 11.9877 17.5955C11.9877 18.1111 11.9233 18.6588 11.7622 19.3999H8.37885C8.34663 19.5288 8.34663 19.5611 8.34663 19.6255C8.34663 20.4633 8.86219 20.8822 9.86108 20.8822C10.4733 20.8822 11.0211 20.7211 11.6333 20.4311L11.3755 22.2677ZM10.4089 17.9499C10.4089 17.7888 10.4411 17.6599 10.4411 17.5955C10.4411 17.0155 10.1511 16.6611 9.63552 16.6611C9.08774 16.6611 8.70108 17.1122 8.53996 17.9822H10.4089V17.9499Z" fill="#C2CFE0"/>
<path fill-rule="evenodd" clip-rule="evenodd" d="M31.6755 22.2677C31.0955 22.4611 30.5478 22.5577 29.9355 22.5577C28.0022 22.5577 27.0355 21.4299 27.0355 19.2711C27.0355 16.7899 28.2922 14.9211 30 14.9211C31.4178 14.9211 32.32 15.9522 32.32 17.5955C32.32 18.1111 32.2555 18.6588 32.0944 19.3999H28.6789C28.6466 19.5288 28.6466 19.5611 28.6466 19.6255C28.6466 20.4633 29.1622 20.8822 30.1611 20.8822C30.7733 20.8822 31.3211 20.7211 31.9333 20.4311L31.6755 22.2677ZM30.7089 17.9499C30.7411 17.7888 30.7411 17.6599 30.7411 17.5955C30.7411 17.0155 30.4511 16.6611 29.9355 16.6611C29.3878 16.6611 29.0011 17.1122 28.84 17.9822H30.7089V17.9499Z" fill="#C2CFE0"/>
<path fill-rule="evenodd" clip-rule="evenodd" d="M55.4555 22.2677C54.8755 22.4611 54.2955 22.5577 53.7155 22.5577C51.8144 22.5577 50.8155 21.4299 50.8155 19.2711C50.8155 16.7899 52.1044 14.9211 53.8122 14.9211C55.2299 14.9211 56.0999 15.9522 56.0999 17.5955C56.0999 18.1111 56.0355 18.6588 55.8744 19.3999H52.491C52.4588 19.5288 52.4588 19.5611 52.4588 19.6255C52.4588 20.4633 52.9744 20.8822 53.9733 20.8822C54.5855 20.8822 55.1333 20.7211 55.7455 20.4311L55.4555 22.2677ZM54.4888 17.9499C54.4888 17.7888 54.521 17.6599 54.521 17.5955C54.521 17.0155 54.231 16.6611 53.7155 16.6611C53.1677 16.6611 52.781 17.1122 52.6199 17.9822H54.4888V17.9499Z" fill="#C2CFE0"/>
<path fill-rule="evenodd" clip-rule="evenodd" d="M6.31661 15.3401C5.99439 15.1145 5.51105 14.9212 4.89883 14.9212C4.18994 14.9212 3.67439 15.0823 3.67439 15.7912C3.67439 17.0801 6.18772 16.5968 6.18772 19.3679C6.18772 21.8812 4.54439 22.5579 3.02994 22.5579C2.35328 22.5579 1.57994 22.3323 1.03217 22.0745L1.45105 20.2379C1.8055 20.5601 2.48217 20.7534 3.06217 20.7534C3.60994 20.7534 4.44772 20.5923 4.44772 19.6579C4.44772 18.1756 1.93439 18.7234 1.93439 16.1456C1.93439 13.7934 3.41661 13.0845 4.83439 13.0845C5.63994 13.0845 6.38105 13.2134 6.83217 13.5034L6.31661 15.3401Z" fill="#C2CFE0"/>
<path fill-rule="evenodd" clip-rule="evenodd" d="M16.37 22.2676C16.0156 22.4287 15.5322 22.5576 14.8556 22.5576C13.3733 22.5576 12.4389 21.0754 12.4389 19.2387C12.4389 16.8543 13.7922 14.9854 15.7578 14.9854C16.1767 14.9854 16.8533 15.1787 17.3689 15.4687L16.9822 17.2087C16.5956 16.9509 16.2089 16.822 15.8222 16.822C14.92 16.822 14.2433 17.6598 14.2433 19.142C14.2433 20.012 14.7267 20.7209 15.4678 20.7209C15.9189 20.7209 16.2411 20.6243 16.5956 20.3987L16.37 22.2676Z" fill="#C2CFE0"/>
<path fill-rule="evenodd" clip-rule="evenodd" d="M22.7499 20.431C22.6533 21.0433 22.5888 21.6555 22.5244 22.2999H20.881L21.0099 21.1399H20.9777C20.4621 21.9455 19.9466 22.4933 18.9799 22.4933C17.9488 22.4933 17.401 21.3977 17.401 20.0122C17.401 19.5288 17.4333 19.2388 17.5299 18.4977L17.981 15.1144H19.8177L19.3666 18.4977C19.3021 18.8522 19.2377 19.2388 19.2377 19.5933C19.2377 20.0122 19.431 20.4633 19.9466 20.431C20.6877 20.431 21.1388 19.5288 21.2677 18.4333L21.7833 15.0822H23.5555L22.7499 20.431Z" fill="#C2CFE0"/>
<path fill-rule="evenodd" clip-rule="evenodd" d="M57.1632 22.2354H56.8732V21.0431H56.4865V20.7854H57.5499V21.0431H57.1632V22.2354Z" fill="#C2CFE0"/>
<path fill-rule="evenodd" clip-rule="evenodd" d="M59 22.2354H58.7422V21.0109L58.4845 22.2354H58.2267L57.9689 21.0109V22.2354H57.7111V20.7854H58.13L58.3556 21.9454H58.3878L58.6133 20.7854H59V22.2354Z" fill="#C2CFE0"/>
</g>
<defs>
<clipPath id="clip0">
<rect width="58" height="20.6222" fill="white" transform="translate(1 2)"/>
</clipPath>
</defs>
</svg>
