<svg width="24" height="24" viewBox="0 0 24 24" fill="none" xmlns="http://www.w3.org/2000/svg">
<path d="M21 5C21.2652 5 21.5196 5.10536 21.7071 5.29289C21.8946 5.48043 22 5.73478 22 6V18C22 18.2652 21.8946 18.5196 21.7071 18.7071C21.5196 18.8946 21.2652 19 21 19H3C2.73478 19 2.48043 18.8946 2.29289 18.7071C2.10536 18.5196 2 18.2652 2 18V16.39C2.99666 16.1655 3.88726 15.6085 4.52537 14.8107C5.16348 14.0129 5.51111 13.0216 5.51111 12C5.51111 10.9784 5.16348 9.98714 4.52537 9.18931C3.88726 8.39147 2.99666 7.83451 2 7.61V6C2 5.73478 2.10536 5.48043 2.29289 5.29289C2.48043 5.10536 2.73478 5 3 5H21ZM21 4H3C2.46957 4 1.96086 4.21071 1.58579 4.58579C1.21071 4.96086 1 5.46957 1 6V8.5C1.92826 8.5 2.8185 8.86875 3.47487 9.52513C4.13125 10.1815 4.5 11.0717 4.5 12C4.5 12.9283 4.13125 13.8185 3.47487 14.4749C2.8185 15.1313 1.92826 15.5 1 15.5V18C1 18.5304 1.21071 19.0391 1.58579 19.4142C1.96086 19.7893 2.46957 20 3 20H21C21.5304 20 22.0391 19.7893 22.4142 19.4142C22.7893 19.0391 23 18.5304 23 18V6C23 5.46957 22.7893 4.96086 22.4142 4.58579C22.0391 4.21071 21.5304 4 21 4Z" fill="#109CF1"/>
<path d="M9 5H8V7H9V5Z" fill="#109CF1"/>
<path d="M9 8H8V10H9V8Z" fill="#109CF1"/>
<path d="M9 11H8V13H9V11Z" fill="#109CF1"/>
<path d="M9 14H8V16H9V14Z" fill="#109CF1"/>
<path d="M9 17H8V19H9V17Z" fill="#109CF1"/>
</svg>
