<svg width="24" height="24" viewBox="0 0 24 24" fill="none" xmlns="http://www.w3.org/2000/svg">
<path d="M19.18 5C19.3879 4.99184 19.5906 5.06602 19.7442 5.20645C19.8977 5.34687 19.9896 5.54219 20 5.75V16.25C19.9896 16.4578 19.8977 16.6531 19.7442 16.7935C19.5906 16.934 19.3879 17.0082 19.18 17H2.82C2.6121 17.0082 2.40937 16.934 2.25584 16.7935C2.10231 16.6531 2.01037 16.4578 2 16.25V15C2.93969 14.85 3.79513 14.3699 4.41271 13.646C5.03028 12.922 5.36952 12.0016 5.36952 11.05C5.36952 10.0984 5.03028 9.17799 4.41271 8.45403C3.79513 7.73007 2.93969 7.24999 2 7.1V5.75C2.01037 5.54219 2.10231 5.34687 2.25584 5.20645C2.40937 5.06602 2.6121 4.99184 2.82 5H19.18ZM19.18 4H2.82C2.58541 3.99469 2.35208 4.03582 2.13344 4.12103C1.9148 4.20623 1.71517 4.33382 1.54602 4.49646C1.37688 4.6591 1.24156 4.85358 1.14785 5.06871C1.05414 5.28384 1.00389 5.51538 1 5.75V7.94C1.40974 7.93204 1.81704 8.00489 2.19863 8.15438C2.58021 8.30386 2.92861 8.52706 3.22391 8.81122C3.51922 9.09539 3.75565 9.43494 3.9197 9.8105C4.08374 10.1861 4.1722 10.5903 4.18 11C4.1722 11.4097 4.08374 11.8139 3.9197 12.1895C3.75565 12.5651 3.51922 12.9046 3.22391 13.1888C2.92861 13.4729 2.58021 13.6961 2.19863 13.8456C1.81704 13.9951 1.40974 14.068 1 14.06V16.25C1.00389 16.4846 1.05414 16.7162 1.14785 16.9313C1.24156 17.1464 1.37688 17.3409 1.54602 17.5035C1.71517 17.6662 1.9148 17.7938 2.13344 17.879C2.35208 17.9642 2.58541 18.0053 2.82 18H19.18C19.4146 18.0053 19.6479 17.9642 19.8666 17.879C20.0852 17.7938 20.2848 17.6662 20.454 17.5035C20.6231 17.3409 20.7584 17.1464 20.8522 16.9313C20.9459 16.7162 20.9961 16.4846 21 16.25V5.75C20.9961 5.51538 20.9459 5.28384 20.8522 5.06871C20.7584 4.85358 20.6231 4.6591 20.454 4.49646C20.2848 4.33382 20.0852 4.20623 19.8666 4.12103C19.6479 4.03582 19.4146 3.99469 19.18 4Z" fill="#C2CFE0"/>
<path d="M3 17.38V18.25C3.00389 18.4846 3.05414 18.7162 3.14785 18.9313C3.24156 19.1464 3.37688 19.3409 3.54602 19.5035C3.71517 19.6662 3.9148 19.7938 4.13344 19.879C4.35208 19.9642 4.58541 20.0053 4.82 20H21.18C21.4146 20.0053 21.6479 19.9642 21.8666 19.879C22.0852 19.7938 22.2848 19.6662 22.454 19.5035C22.6231 19.3409 22.7584 19.1464 22.8522 18.9313C22.9459 18.7162 22.9961 18.4846 23 18.25V7.75C22.9961 7.51538 22.9459 7.28384 22.8522 7.06871C22.7584 6.85358 22.6231 6.6591 22.454 6.49646C22.2848 6.33382 22.0852 6.20623 21.8666 6.12103C21.6479 6.03582 21.4146 5.99469 21.18 6H20.29" stroke="#C2CFE0" stroke-linejoin="round"/>
<path d="M12 7.55L12.86 9.36C12.9299 9.50744 13.0347 9.63556 13.1655 9.73317C13.2962 9.83078 13.4488 9.89492 13.61 9.92L15.61 10.22L14.13 11.73C14.0208 11.8422 13.9395 11.9785 13.8926 12.1279C13.8457 12.2772 13.8346 12.4355 13.86 12.59L14.2 14.66L12.48 13.71C12.328 13.6222 12.1556 13.576 11.98 13.576C11.8045 13.576 11.632 13.6222 11.48 13.71L9.76003 14.66L10.1 12.59C10.1255 12.4355 10.1143 12.2772 10.0674 12.1279C10.0205 11.9785 9.93921 11.8422 9.83003 11.73L8.39003 10.22L10.39 9.92C10.5512 9.89492 10.7039 9.83078 10.8346 9.73317C10.9653 9.63556 11.0702 9.50744 11.14 9.36L12 7.55ZM12 6C11.8858 5.9998 11.774 6.03277 11.6781 6.0949C11.5823 6.15703 11.5065 6.24565 11.46 6.35L10.24 8.93L7.52003 9.34C7.40541 9.36089 7.29866 9.41266 7.2113 9.48975C7.12393 9.56684 7.05927 9.66632 7.02429 9.77745C6.9893 9.88859 6.98532 10.0072 7.01276 10.1204C7.04021 10.2336 7.09804 10.3372 7.18003 10.42L9.18003 12.42L8.72003 15.25C8.70256 15.3384 8.70455 15.4295 8.72587 15.517C8.74719 15.6045 8.78732 15.6863 8.84348 15.7568C8.89963 15.8272 8.97046 15.8846 9.05103 15.9248C9.13161 15.9651 9.21999 15.9874 9.31003 15.99C9.40793 15.992 9.50459 15.9678 9.59003 15.92L12 14.59L14.44 15.93C14.5255 15.9778 14.6221 16.002 14.72 16C14.8101 15.9974 14.8985 15.9751 14.979 15.9348C15.0596 15.8946 15.1304 15.8372 15.1866 15.7668C15.2427 15.6963 15.2829 15.6145 15.3042 15.527C15.3255 15.4395 15.3275 15.3484 15.31 15.26L14.85 12.43L16.85 10.43C16.932 10.3472 16.9899 10.2436 17.0173 10.1304C17.0447 10.0172 17.0408 9.89859 17.0058 9.78745C16.9708 9.67632 16.9061 9.57684 16.8188 9.49975C16.7314 9.42266 16.6247 9.37089 16.51 9.35L13.79 8.94L12.54 6.35C12.4936 6.24565 12.4178 6.15703 12.3219 6.0949C12.2261 6.03277 12.1143 5.9998 12 6Z" fill="#C2CFE0"/>
</svg>
