<svg width="24" height="24" viewBox="0 0 24 24" fill="none" xmlns="http://www.w3.org/2000/svg">
<path d="M21 5C21.2652 5 21.5196 5.10536 21.7071 5.29289C21.8946 5.48043 22 5.73478 22 6V18C22 18.2652 21.8946 18.5196 21.7071 18.7071C21.5196 18.8946 21.2652 19 21 19H3C2.73478 19 2.48043 18.8946 2.29289 18.7071C2.10536 18.5196 2 18.2652 2 18V6C2 5.73478 2.10536 5.48043 2.29289 5.29289C2.48043 5.10536 2.73478 5 3 5H21ZM21 4H3C2.46957 4 1.96086 4.21071 1.58579 4.58579C1.21071 4.96086 1 5.46957 1 6V18C1 18.5304 1.21071 19.0391 1.58579 19.4142C1.96086 19.7893 2.46957 20 3 20H21C21.5304 20 22.0391 19.7893 22.4142 19.4142C22.7893 19.0391 23 18.5304 23 18V6C23 5.46957 22.7893 4.96086 22.4142 4.58579C22.0391 4.21071 21.5304 4 21 4Z" fill="#C2CFE0"/>
<path d="M22 8V10H2V8H22ZM23 7H1V11H23V7Z" fill="#C2CFE0"/>
<path d="M13.5 16H4.5V17H13.5V16Z" fill="#C2CFE0"/>
<path d="M13.5 14H4.5V15H13.5V14Z" fill="#C2CFE0"/>
<path d="M19 14.5V16.5H17V14.5H19ZM19 13.5H17C16.7348 13.5 16.4804 13.6054 16.2929 13.7929C16.1054 13.9804 16 14.2348 16 14.5V16.5C16 16.7652 16.1054 17.0196 16.2929 17.2071C16.4804 17.3946 16.7348 17.5 17 17.5H19C19.2652 17.5 19.5196 17.3946 19.7071 17.2071C19.8946 17.0196 20 16.7652 20 16.5V14.5C20 14.2348 19.8946 13.9804 19.7071 13.7929C19.5196 13.6054 19.2652 13.5 19 13.5Z" fill="#C2CFE0"/>
</svg>
