<svg width="160" height="24" viewBox="0 0 160 24" fill="none" xmlns="http://www.w3.org/2000/svg">
<path d="M8.49291 13.945L12.1256 0.978593H17.0359L10.898 18.789H6.08784L0 0.978593H4.87278L8.49291 13.945Z" fill="#C2CFE0"/>
<path d="M17.0735 12.0489C17.0735 10.7278 17.3366 9.55352 17.8627 8.52599C18.3888 7.49032 19.1445 6.69521 20.13 6.14067C21.1154 5.58614 22.272 5.30887 23.5998 5.30887C25.6291 5.30887 27.2283 5.92457 28.3974 7.15596C29.5665 8.3792 30.1511 10.0469 30.1511 12.159V12.3058C30.1511 14.369 29.5624 16.0082 28.3849 17.2232C27.2157 18.4302 25.6291 19.0336 23.6248 19.0336C21.6958 19.0336 20.1467 18.4709 18.9775 17.3456C17.8084 16.212 17.1779 14.6789 17.086 12.7462L17.0735 12.0489ZM21.2949 12.3058C21.2949 13.5291 21.4912 14.4261 21.8837 14.9969C22.2762 15.5678 22.8565 15.8532 23.6248 15.8532C25.128 15.8532 25.8963 14.7238 25.9297 12.4648V12.0489C25.9297 9.67584 25.1531 8.4893 23.5998 8.4893C22.1885 8.4893 21.4244 9.51274 21.3074 11.5596L21.2949 12.3058Z" fill="#C2CFE0"/>
<path d="M40.0846 17.3578C39.191 18.475 37.9843 19.0336 36.4644 19.0336C34.9779 19.0336 33.8506 18.6137 33.0823 17.7737C32.3223 16.9256 31.9424 15.7105 31.9424 14.1284V5.55352H36.1638V14.1529C36.1638 15.2864 36.7275 15.8532 37.8548 15.8532C38.8236 15.8532 39.5125 15.5148 39.9217 14.8379V5.55352H44.1682V18.789H40.2098L40.0846 17.3578Z" fill="#C2CFE0"/>
<path d="M52.2227 15.8532C52.8156 15.8532 53.2749 15.6983 53.6006 15.3884C53.9263 15.0703 54.0849 14.63 54.0766 14.0673H58.0349C58.0349 15.5189 57.5005 16.7095 56.4315 17.6391C55.371 18.5688 54.0014 19.0336 52.3229 19.0336C50.352 19.0336 48.7988 18.4302 47.663 17.2232C46.5273 16.0163 45.9594 14.3445 45.9594 12.208V12.0367C45.9594 10.6993 46.21 9.5209 46.711 8.50153C47.2204 7.47401 47.9511 6.68705 48.9032 6.14067C49.8552 5.58614 50.9825 5.30887 52.2853 5.30887C54.0473 5.30887 55.4461 5.78593 56.4816 6.74006C57.5172 7.69419 58.0349 8.98675 58.0349 10.6177H54.0766C54.0766 9.93272 53.9054 9.40673 53.563 9.03975C53.2206 8.67278 52.7613 8.4893 52.1851 8.4893C51.0911 8.4893 50.4523 9.17023 50.2685 10.5321C50.2101 10.9643 50.1808 11.5596 50.1808 12.318C50.1808 13.6473 50.3437 14.5688 50.6694 15.0826C50.9951 15.5963 51.5128 15.8532 52.2227 15.8532Z" fill="#C2CFE0"/>
<path d="M63.9474 6.97248C64.8493 5.8634 66.0017 5.30887 67.4047 5.30887C68.8995 5.30887 70.0269 5.74108 70.7868 6.6055C71.5468 7.46993 71.9351 8.74618 71.9518 10.4343V18.789H67.7178V10.5321C67.7178 9.83078 67.5717 9.31702 67.2794 8.99083C66.9871 8.65647 66.4902 8.4893 65.7888 8.4893C64.9203 8.4893 64.3065 8.75841 63.9474 9.29664V18.789H59.726V0H63.9474V6.97248Z" fill="#C2CFE0"/>
<path d="M80.8581 19.0336C78.7787 19.0336 77.096 18.4302 75.8099 17.2232C74.5239 16.0082 73.8808 14.4302 73.8808 12.4893V12.1468C73.8808 10.7931 74.1355 9.59837 74.645 8.56269C75.1627 7.52701 75.9143 6.72783 76.8997 6.16514C77.8851 5.59429 79.0543 5.30887 80.4071 5.30887C82.3111 5.30887 83.8143 5.88787 84.9166 7.04587C86.0189 8.19572 86.5701 9.80224 86.5701 11.8654V13.4679H78.1774C78.3277 14.21 78.6576 14.7931 79.167 15.2171C79.6764 15.6412 80.3361 15.8532 81.1462 15.8532C82.4823 15.8532 83.5262 15.3965 84.2778 14.4832L86.2068 16.7095C85.6807 17.419 84.9333 17.9857 83.9646 18.4098C83.0042 18.8257 81.9687 19.0336 80.8581 19.0336ZM80.382 8.4893C79.1461 8.4893 78.4112 9.28848 78.1774 10.8869H82.4364V10.5688C82.4531 9.90826 82.2819 9.39857 81.9228 9.03975C81.5637 8.67278 81.0501 8.4893 80.382 8.4893Z" fill="#C2CFE0"/>
<path d="M96.4785 9.2844L95.0881 9.18654C93.7603 9.18654 92.9085 9.59429 92.5327 10.4098V18.789H88.3113V5.55352H92.2696L92.4074 7.25382C93.1172 5.95719 94.1068 5.30887 95.3762 5.30887C95.8271 5.30887 96.2196 5.3578 96.5537 5.45566L96.4785 9.2844Z" fill="#C2CFE0"/>
<path d="M108.98 15.4862H116.634V18.789H104.583V0.978593H108.98V15.4862Z" fill="#C2CFE0"/>
<path d="M117.761 12.0489C117.761 10.7278 118.024 9.55352 118.55 8.52599C119.076 7.49032 119.832 6.69521 120.817 6.14067C121.803 5.58614 122.959 5.30887 124.287 5.30887C126.316 5.30887 127.916 5.92457 129.085 7.15596C130.254 8.3792 130.838 10.0469 130.838 12.159V12.3058C130.838 14.369 130.25 16.0082 129.072 17.2232C127.903 18.4302 126.316 19.0336 124.312 19.0336C122.383 19.0336 120.834 18.4709 119.665 17.3456C118.496 16.212 117.865 14.6789 117.773 12.7462L117.761 12.0489ZM121.982 12.3058C121.982 13.5291 122.179 14.4261 122.571 14.9969C122.964 15.5678 123.544 15.8532 124.312 15.8532C125.815 15.8532 126.584 14.7238 126.617 12.4648V12.0489C126.617 9.67584 125.84 8.4893 124.287 8.4893C122.876 8.4893 122.112 9.51274 121.995 11.5596L121.982 12.3058Z" fill="#C2CFE0"/>
<path d="M132.204 12.0734C132.204 10.736 132.429 9.55352 132.88 8.52599C133.331 7.49847 133.978 6.70744 134.822 6.1529C135.665 5.59021 136.647 5.30887 137.766 5.30887C139.177 5.30887 140.279 5.7737 141.073 6.70336L141.223 5.55352H145.056V18.2875C145.056 19.4536 144.776 20.4648 144.217 21.3211C143.666 22.1855 142.864 22.8461 141.812 23.3028C140.759 23.7676 139.54 24 138.154 24C137.16 24 136.196 23.8165 135.26 23.4495C134.333 23.0826 133.624 22.6055 133.131 22.0183L134.897 19.5963C135.682 20.5015 136.718 20.9541 138.004 20.9541C139.874 20.9541 140.81 20.0163 140.81 18.1407V17.7248C139.999 18.5973 138.976 19.0336 137.741 19.0336C136.087 19.0336 134.751 18.4179 133.732 17.1865C132.713 15.947 132.204 14.2915 132.204 12.2202V12.0734ZM136.438 12.3303C136.438 13.4149 136.647 14.2752 137.064 14.9113C137.482 15.5392 138.066 15.8532 138.818 15.8532C139.728 15.8532 140.392 15.5556 140.81 14.9602V9.3945C140.4 8.79103 139.745 8.4893 138.843 8.4893C138.091 8.4893 137.503 8.81957 137.077 9.48012C136.651 10.1325 136.438 11.0826 136.438 12.3303Z" fill="#C2CFE0"/>
<path d="M146.922 12.0489C146.922 10.7278 147.185 9.55352 147.712 8.52599C148.238 7.49032 148.993 6.69521 149.979 6.14067C150.964 5.58614 152.121 5.30887 153.449 5.30887C155.478 5.30887 157.077 5.92457 158.246 7.15596C159.415 8.3792 160 10.0469 160 12.159V12.3058C160 14.369 159.411 16.0082 158.234 17.2232C157.065 18.4302 155.478 19.0336 153.474 19.0336C151.545 19.0336 149.996 18.4709 148.826 17.3456C147.657 16.212 147.027 14.6789 146.935 12.7462L146.922 12.0489ZM151.144 12.3058C151.144 13.5291 151.34 14.4261 151.733 14.9969C152.125 15.5678 152.705 15.8532 153.474 15.8532C154.977 15.8532 155.745 14.7238 155.779 12.4648V12.0489C155.779 9.67584 155.002 8.4893 153.449 8.4893C152.037 8.4893 151.273 9.51274 151.156 11.5596L151.144 12.3058Z" fill="#C2CFE0"/>
</svg>
