<svg width="24" height="24" viewBox="0 0 24 24" fill="none" xmlns="http://www.w3.org/2000/svg">
<path d="M4.58002 10.92C4.78776 9.30014 5.45829 7.77458 6.51122 6.52621C7.56415 5.27784 8.95478 4.35965 10.5164 3.88171C12.078 3.40376 13.7443 3.38636 15.3156 3.83158C16.8869 4.27681 18.2964 5.16576 19.3751 6.39186C20.4539 7.61797 21.1561 9.12919 21.3977 10.7444C21.6392 12.3595 21.4098 14.0101 20.7369 15.4981C20.064 16.9862 18.9762 18.2486 17.6039 19.134C16.2317 20.0194 14.6331 20.4902 13 20.49" stroke="#C2CFE0" stroke-linecap="round" stroke-linejoin="round"/>
<path d="M9.45998 8.6L8.88998 7.77L4.82998 10.57L2.33998 6.31L1.47998 6.82L4.51998 12L9.45998 8.6Z" fill="#C2CFE0"/>
<path d="M13.5 7H12.5V13H13.5V7Z" fill="#C2CFE0"/>
<path d="M16.25 13V12H12.5V13H16.25Z" fill="#C2CFE0"/>
<path d="M13 20.49C10.7483 20.49 8.58886 19.5955 6.99667 18.0033C5.40449 16.4112 4.51001 14.2517 4.51001 12" stroke="#C2CFE0" stroke-linejoin="round" stroke-dasharray="1 1"/>
</svg>
