<svg width="60" height="24" viewBox="0 0 60 24" fill="none" xmlns="http://www.w3.org/2000/svg">
<path fill-rule="evenodd" clip-rule="evenodd" d="M40.6105 13.6092L41.1864 13.7833C41.1475 13.9446 41.0868 14.0795 41.0042 14.1879C40.9216 14.2967 40.8181 14.3788 40.6939 14.4343C40.5711 14.4887 40.4145 14.5159 40.2242 14.5159C39.9929 14.5159 39.8037 14.4828 39.6568 14.4168C39.5112 14.3487 39.3849 14.2301 39.278 14.061C39.1718 13.8919 39.1188 13.6752 39.1188 13.4108C39.1188 13.0589 39.2121 12.7887 39.3987 12.6002C39.5867 12.4106 39.8515 12.3159 40.1933 12.3159C40.461 12.3159 40.6715 12.3703 40.8246 12.4792C40.9785 12.588 41.0927 12.7542 41.1672 12.9778L40.5869 13.1061C40.5673 13.0409 40.5461 12.9938 40.5234 12.9646C40.4869 12.9141 40.4422 12.8757 40.3892 12.8495C40.3361 12.8223 40.2765 12.8086 40.2106 12.8086C40.0619 12.8086 39.9478 12.8684 39.8683 12.988C39.8083 13.0774 39.7783 13.2174 39.7783 13.4079C39.7783 13.644 39.8143 13.8059 39.8862 13.8934C39.9583 13.9808 40.0592 14.0246 40.1889 14.0246C40.3148 14.0246 40.4095 13.9896 40.4732 13.9196C40.5383 13.8496 40.5854 13.7476 40.6143 13.6134L40.6105 13.6092ZM41.4214 13.4162C41.4214 13.0692 41.5182 12.799 41.7116 12.6056C41.9048 12.4121 42.174 12.3154 42.5193 12.3154C42.8733 12.3154 43.1461 12.4107 43.3379 12.6012C43.5298 12.7907 43.6257 13.0568 43.6257 13.3996C43.6257 13.6482 43.5836 13.8521 43.4994 14.0113C43.4168 14.1697 43.2963 14.2937 43.1379 14.3831C42.9804 14.4711 42.7841 14.5152 42.5489 14.5152C42.3098 14.5152 42.1115 14.4773 41.954 14.4014C41.7985 14.3256 41.6717 14.2047 41.5735 14.0387C41.4763 13.8735 41.4277 13.6665 41.4277 13.4176L41.4214 13.4162ZM42.0782 13.4191C42.0782 13.6337 42.1179 13.7879 42.1972 13.8818C42.2769 13.9756 42.3853 14.0225 42.5223 14.0225C42.6633 14.0225 42.7726 13.9763 42.8504 13.8837C42.9272 13.7912 42.9655 13.6263 42.9655 13.3891C42.9655 13.1888 42.9247 13.0429 42.8431 12.9512C42.7624 12.8579 42.6531 12.8113 42.515 12.8113C42.3819 12.8113 42.2755 12.8579 42.1958 12.9512C42.1151 13.0436 42.0747 13.1986 42.0747 13.4163L42.0782 13.4191ZM43.974 12.3516H44.8383L45.1721 13.6454L45.5041 12.3516H46.3657V14.4778H45.8292V12.8566L45.4137 14.4778H44.9282L44.5142 12.8566V14.4778H43.9747V12.3517L43.974 12.3516ZM46.7802 12.3516H47.8727C48.1105 12.3516 48.2884 12.4082 48.4063 12.5213C48.5253 12.6343 48.5849 12.7951 48.5849 13.0036C48.5849 13.2181 48.52 13.3856 48.3904 13.5061C48.2617 13.6267 48.065 13.6869 47.8002 13.6869H47.4404V14.4762H46.7804V12.3493L46.7802 12.3516ZM47.4404 13.258H47.6013C47.728 13.258 47.8169 13.2363 47.8682 13.1928C47.9195 13.1484 47.9451 13.0919 47.9451 13.0233C47.9451 12.9565 47.9229 12.8999 47.8784 12.8536C47.8339 12.8069 47.7504 12.7836 47.6276 12.7836H47.4398V13.2574L47.4404 13.258ZM48.93 12.3516H49.586V13.9544H50.611V14.4778H48.9285V12.3517L48.93 12.3516ZM50.939 12.3516H51.5965V14.4778H50.9376V12.3517L50.939 12.3516ZM53.3752 14.1269H52.6258L52.5223 14.478H51.8502L52.6492 12.3523H53.365L54.164 14.4794H53.4773L53.3723 14.1295L53.3752 14.1269ZM53.2367 13.6672L53.0005 12.903L52.7658 13.6672H53.2338H53.2367ZM54.3797 12.3516H54.9935L55.7939 13.5279V12.3516H56.4136V14.4778H55.7939L54.9979 13.3103V14.4781H54.3797V12.3514V12.3516ZM56.7022 12.3516H58.6996V12.8767H58.029V14.4778H57.3729V12.877H56.7022V12.3519V12.3516Z" fill="#C2CFE0"/>
<path fill-rule="evenodd" clip-rule="evenodd" d="M32.6994 15.5975L34.6024 14.9977L33.9863 13.625C33.5279 14.1892 33.0765 14.9211 32.6989 15.5962L32.6994 15.5975ZM32.051 9.31375L28.3193 1L1 2.55125L8.56845 23.2029L23.1376 18.6107C22.2133 17.2788 21.8721 15.6953 22.9423 14.9214C24.1422 14.0554 25.9456 15.057 27.1047 16.4814C28.2171 14.6123 31.3371 10.2983 32.0515 9.31419L32.051 9.31375Z" fill="#C2CFE0"/>
<path fill-rule="evenodd" clip-rule="evenodd" d="M27.4713 7.00704C28.6148 7.00704 29.5419 6.13271 29.5419 5.05413C29.5419 3.97555 28.6138 3.10181 27.4707 3.10181C26.3268 3.10181 25.4 3.97613 25.4 5.05486C25.4 6.13374 26.3268 7.00792 27.4709 7.00792L27.4713 7.00704ZM25.7772 7.8541H29.1654V16.7012H25.7772V7.85439V7.8541ZM24.1042 10.4361C24.1275 10.4503 24.1479 10.4386 24.1479 10.4107V8.1696C24.1479 8.14103 24.1275 8.10691 24.1028 8.0935C24.1028 8.0935 23.6581 7.8038 22.3022 7.72318C22.2293 7.68309 21.0484 7.67711 20.7218 7.72318C15.794 8.11828 15.6117 11.6832 15.6117 11.8462V12.7115C15.6117 12.8172 15.6117 16.4622 20.7218 16.785C21.2204 16.8226 22.1987 16.785 22.3022 16.785C23.4788 16.785 24.2937 16.4303 24.2937 16.4303C24.3185 16.4189 24.3404 16.388 24.3404 16.3597V14.2617C24.3404 14.2332 24.3214 14.223 24.2967 14.2377C24.2967 14.2377 23.9307 14.5322 22.3226 14.6882C21.8663 14.7392 21.6505 14.7159 21.4858 14.6882C19.2055 14.3048 19.0962 12.634 19.0962 12.634C19.0933 12.6063 19.0904 12.5611 19.0904 12.5334V11.8962C19.0904 11.8685 19.0933 11.8233 19.0962 11.7956C19.0962 11.7956 19.2493 10.0053 21.4843 9.81576H22.3197C23.3067 9.94843 24.0984 10.4368 24.0984 10.4368L24.1042 10.4361ZM6.21399 16.6659C6.21399 16.6942 6.2363 16.7169 6.26458 16.7169H9.56506C9.59305 16.7169 9.6158 16.6942 9.6158 16.6669V14.099C9.6158 14.0719 9.6384 14.0503 9.66682 14.0514C9.66682 14.0514 14.9354 14.4323 14.9354 10.8955C14.9354 8.10472 11.6298 7.79885 10.5416 7.84987C10.5197 7.85133 6.26516 7.84987 6.26516 7.84987C6.23746 7.84987 6.21413 7.87393 6.21413 7.90119V16.6663L6.21399 16.6659ZM9.55748 12.0894V9.77625H10.3649C10.3649 9.77625 11.54 9.82932 11.6318 10.6284C11.6537 10.6911 11.6479 11.0818 11.6318 11.1037C11.4817 12.0438 10.4611 12.0899 10.4611 12.0899L9.5601 12.0884L9.55748 12.0894Z" fill="#F9F9F9"/>
<path fill-rule="evenodd" clip-rule="evenodd" d="M27.5643 20.9726C27.8398 20.9726 28.0505 20.9726 28.3987 20.8181C29.6019 20.1857 33.6512 10.2965 37.9222 7.25461C37.947 7.23508 37.9824 7.20679 38.0028 7.17778C38.0303 7.13769 38.0313 7.09672 38.0313 7.09672C38.0313 7.09672 38.0313 6.89407 37.3979 6.89407C33.5956 6.79055 29.6417 14.7611 27.5642 17.9146C27.5379 17.9496 27.395 17.9146 27.395 17.9146C27.395 17.9146 26.0027 16.2715 24.7926 15.6417C24.7678 15.6286 24.6293 15.5863 24.4864 15.5965C24.3917 15.5965 23.8289 15.7088 23.5665 15.9872C23.2574 16.3138 23.2632 16.4975 23.2661 16.8955C23.2676 16.9276 23.288 17.0603 23.3259 17.1273C23.6219 17.6449 24.9734 19.5023 26.08 20.5272C26.252 20.6497 26.513 20.9748 27.5656 20.9748L27.5643 20.9726Z" fill="#C2CFE0"/>
<path fill-rule="evenodd" clip-rule="evenodd" d="M39.045 4.25753H42.2088C42.8328 4.25753 43.3359 4.34209 43.718 4.51121C44.1036 4.68052 44.4217 4.92351 44.6724 5.24018C44.9232 5.55607 45.1049 5.9241 45.2177 6.34428C45.3304 6.76416 45.3868 7.20883 45.3868 7.67829C45.3868 8.41406 45.3022 8.98606 45.1331 9.39428C44.9671 9.79862 44.7352 10.1388 44.4374 10.4148C44.1397 10.687 43.82 10.8683 43.4783 10.9587C43.0113 11.0831 42.5882 11.1453 42.2089 11.1453H39.0452V4.2552L39.045 4.25753ZM41.1748 5.81825V9.58411H41.6956C42.1407 9.58411 42.4573 9.53551 42.6453 9.43831C42.8333 9.3382 42.9803 9.16616 43.0865 8.9222C43.1926 8.67435 43.2457 8.27488 43.2457 7.72378C43.2457 6.99384 43.1263 6.49425 42.8874 6.22502C42.6493 5.95578 42.2543 5.82117 41.7024 5.82117H41.1713L41.1748 5.81825ZM45.966 8.86972L47.9911 8.74288C48.0348 9.07237 48.1238 9.32314 48.2579 9.49517C48.4766 9.77412 48.7901 9.9136 49.1983 9.9136C49.5025 9.9136 49.7358 9.84313 49.8981 9.7022C50.0633 9.55835 50.1459 9.39214 50.1459 9.20358C50.1459 9.02572 50.0672 8.86631 49.9097 8.72538C49.7523 8.58445 49.3888 8.45177 48.8192 8.32736C47.8852 8.11742 47.2189 7.83847 46.8204 7.49051C46.419 7.14352 46.2182 6.7003 46.2182 6.16087C46.2182 5.80707 46.3203 5.47369 46.5244 5.16072C46.7305 4.84483 47.0391 4.59747 47.4502 4.41863C47.8643 4.23687 48.4299 4.146 49.1472 4.146C50.0269 4.146 50.697 4.31074 51.1577 4.64024C51.6204 4.96682 51.8959 5.4873 51.9844 6.20169L49.9768 6.31978C49.9234 6.00973 49.8101 5.78423 49.6371 5.6433C49.467 5.50236 49.2318 5.4319 48.9315 5.4319C48.6836 5.4319 48.497 5.48536 48.3716 5.59227C48.2453 5.69627 48.1821 5.82311 48.1821 5.97279C48.1821 6.08262 48.2336 6.18128 48.3366 6.26875C48.4367 6.36012 48.6749 6.44517 49.051 6.52389C49.9822 6.72509 50.6481 6.9292 51.049 7.13623C51.4533 7.34034 51.7464 7.59451 51.9281 7.89873C52.1138 8.20295 52.2066 8.54314 52.2066 8.91929C52.2066 9.36153 52.0841 9.76926 51.8392 10.1425C51.5943 10.5157 51.2526 10.7994 50.8143 10.9935C50.3769 11.183 49.8246 11.2778 49.1573 11.2778C47.9851 11.2778 47.1732 11.0523 46.7215 10.6013C46.2696 10.1503 46.0139 9.57687 45.9547 8.88094L45.966 8.86972ZM52.7586 8.86972L54.7836 8.74288C54.8274 9.07237 54.9163 9.32314 55.0504 9.49517C55.2691 9.77412 55.5826 9.9136 55.9908 9.9136C56.295 9.9136 56.5283 9.84313 56.6906 9.7022C56.8568 9.55835 56.9399 9.39214 56.9399 9.20358C56.9399 9.02572 56.8612 8.86631 56.7037 8.72538C56.5463 8.58445 56.1828 8.45177 55.6132 8.32736C54.6792 8.11742 54.0129 7.83847 53.6144 7.49051C53.213 7.14352 53.0122 6.7003 53.0122 6.16087C53.0122 5.80707 53.1138 5.47369 53.317 5.16072C53.524 4.84483 53.8326 4.59747 54.2427 4.41863C54.6558 4.23687 55.2215 4.146 55.9398 4.146C56.8194 4.146 57.4896 4.31074 57.9503 4.64024C58.4139 4.96682 58.6895 5.4873 58.7769 6.20169L56.7708 6.31832C56.7164 6.00827 56.6031 5.78277 56.4311 5.64184C56.262 5.50091 56.0268 5.43044 55.7255 5.43044C55.4776 5.43044 55.291 5.4839 55.1656 5.59081C55.0393 5.69481 54.9761 5.82214 54.9761 5.97279C54.9761 6.08262 55.0276 6.18128 55.1306 6.26875C55.2307 6.36012 55.4689 6.44517 55.845 6.52389C56.7762 6.72412 57.4424 6.92774 57.8439 7.13477C58.2472 7.33888 58.5403 7.59305 58.723 7.89727C58.9077 8.20149 59 8.54168 59 8.91783C59 9.36007 58.878 9.76781 58.6341 10.141C58.3891 10.5143 58.047 10.7981 57.6077 10.9925C57.1703 11.183 56.6182 11.2782 55.9514 11.2782C54.7793 11.2782 53.9672 11.0522 53.5152 10.6003C53.0642 10.1493 52.8086 9.57584 52.7484 8.87992L52.7586 8.86972Z" fill="#C2CFE0"/>
</svg>
