<svg width="60" height="24" viewBox="0 0 60 24" fill="none" xmlns="http://www.w3.org/2000/svg">
<g clip-path="url(#clip0)">
<path d="M4 1.63795C4.40835 1.56138 4.84223 1.48482 5.25058 1.40825C5.40371 1.38273 5.55684 1.35721 5.70998 1.33168C5.81206 1.30616 5.83759 1.33168 5.86311 1.43377C6.27146 3.62867 6.70534 5.82356 7.13921 7.99294C7.13921 7.99294 7.13921 8.01846 7.16473 8.04398C7.21578 8.01846 7.21578 7.96742 7.2413 7.91637C8.31322 5.79804 9.38515 3.65419 10.4316 1.53586C10.4826 1.43377 10.5336 1.38273 10.6613 1.40825C11.1462 1.40825 11.6311 1.40825 12.1415 1.40825C12.1926 1.40825 12.2436 1.40825 12.2947 1.43377C12.0905 1.8166 11.8863 2.17391 11.7077 2.55674C10.355 5.08343 9.00232 7.61011 7.67517 10.1368C7.59861 10.2644 7.52204 10.3154 7.39443 10.3154C6.93503 10.3154 6.47564 10.3154 6.04176 10.3154C5.9652 10.3154 5.91415 10.2899 5.88863 10.1878C5.2761 7.40593 4.66357 4.64955 4.05104 1.89317C4.05104 1.84213 4.05104 1.79108 4 1.74004C4 1.68899 4 1.66347 4 1.63795Z" fill="#C2CFE0"/>
<path d="M55.0441 5.59383C54.8144 6.05323 54.5592 6.51263 54.3295 6.9465C53.717 8.14604 53.0789 9.3711 52.4664 10.5706C52.2622 10.979 52.007 11.3618 51.6242 11.6681C51.1648 12.0254 50.6288 12.0764 50.0928 11.9999C50.0163 11.9999 49.9908 11.9488 49.9908 11.8978C49.9908 11.6426 49.9908 11.3873 49.9908 11.1066C49.9908 11.03 50.0163 11.0045 50.0928 11.03C50.1439 11.0556 50.2205 11.0556 50.2715 11.0556C50.884 11.1321 51.2669 10.9024 51.471 10.3154C51.4966 10.2644 51.4966 10.2133 51.471 10.1623C51.1648 8.682 50.833 7.22725 50.5267 5.74697C50.5012 5.6704 50.5267 5.61936 50.6033 5.61936C50.9351 5.59383 51.2924 5.54279 51.6242 5.49175C51.7263 5.46622 51.7518 5.51727 51.7518 5.59383C51.9049 6.46158 52.058 7.32933 52.1856 8.19708C52.2112 8.37574 52.2367 8.55439 52.2877 8.75857C52.3388 8.75857 52.3388 8.70752 52.3643 8.65648C52.8492 7.66112 53.3086 6.66576 53.768 5.6704C53.8191 5.56831 53.8701 5.51727 53.9977 5.51727C54.3295 5.51727 54.6613 5.51727 54.9931 5.51727C55.0441 5.56831 55.0441 5.56831 55.0441 5.59383Z" fill="#C2CFE0"/>
<path d="M34.0394 23C33.0951 22.9745 32.1508 22.8724 31.2575 22.5406C31.1299 22.4896 31.0789 22.4385 31.1044 22.2854C31.232 21.6218 31.3341 20.9583 31.4362 20.2692C31.4617 20.1671 31.4872 20.1926 31.5382 20.2181C32.0232 20.4478 32.5336 20.6775 33.044 20.7541C33.6566 20.8562 34.2691 20.9327 34.9072 20.7796C35.1369 20.7286 35.3666 20.6265 35.5452 20.4478C35.877 20.116 35.9025 19.6566 35.5707 19.3249C35.3155 19.0696 35.0092 18.891 34.703 18.7378C34.2436 18.5081 33.8097 18.2784 33.4014 17.9977C32.8909 17.6149 32.457 17.1555 32.2784 16.543C32.0487 15.6497 32.2529 14.833 32.8144 14.0928C33.3758 13.3782 34.116 12.9699 34.9837 12.7402C36.2854 12.4084 37.5615 12.4849 38.8376 12.9188C38.9141 12.9443 38.9652 12.9954 38.9396 13.072C38.8376 13.7355 38.7099 14.3991 38.6079 15.0627C38.5823 15.1648 38.5568 15.1648 38.4802 15.1137C37.7146 14.7309 36.8724 14.6033 36.0301 14.6798C35.7239 14.7054 35.4176 14.8075 35.1624 15.0116C34.8306 15.2924 34.8051 15.6752 35.1113 16.007C35.4176 16.3133 35.7749 16.4919 36.1577 16.6706C36.6427 16.9258 37.1021 17.1555 37.5359 17.4873C38.0719 17.9211 38.4547 18.4316 38.5313 19.1207C38.6589 20.3202 38.2505 21.29 37.3062 22.0302C36.6682 22.5151 35.928 22.7703 35.1624 22.8724C34.7795 22.9745 34.3967 23.0255 34.0394 23Z" fill="#C2CFE0"/>
<path d="M21.7634 18.1508C21.8655 18.4316 21.891 18.7378 21.9676 19.0186C22.0186 19.1972 22.0441 19.4014 22.0952 19.6311C22.2228 19.2993 22.3249 18.993 22.4525 18.7123C23.1671 16.7726 23.9072 14.8074 24.6219 12.8678C24.6474 12.7657 24.6984 12.7401 24.8005 12.7401C25.6427 12.7401 26.485 12.7401 27.3272 12.7401C27.3527 12.7401 27.4038 12.7401 27.4548 12.7401C27.4293 12.8678 27.3782 12.9698 27.3272 13.0719C26.0256 16.2877 24.6984 19.5035 23.3968 22.7193C23.3458 22.8213 23.3202 22.8469 23.2182 22.8469C22.3759 22.8469 21.5337 22.8469 20.6915 22.8469C20.5894 22.8469 20.5639 22.8213 20.5383 22.7193C19.8237 19.9629 19.0836 17.2065 18.369 14.4501C18.3434 14.297 18.2924 14.1694 18.2669 14.0162C18.3434 13.9907 18.369 14.0418 18.42 14.0673C18.9304 14.3736 19.3898 14.7309 19.8237 15.1392C20.5894 15.8538 21.1764 16.6705 21.6358 17.5893C21.6613 17.7935 21.7379 17.9466 21.7634 18.1508Z" fill="#C2CFE0"/>
<path d="M28.1438 22.8724C27.761 22.8724 27.3526 22.8724 26.9698 22.8724C26.8677 22.8724 26.8422 22.8469 26.8677 22.7448C27.1229 21.1624 27.3782 19.58 27.6334 18.0232C27.9141 16.3388 28.1694 14.6798 28.4501 12.9954C28.5011 12.7401 28.5011 12.7401 28.7564 12.7401C29.4965 12.7401 30.2111 12.7401 30.9513 12.7401C31.0533 12.7401 31.1044 12.7657 31.0789 12.8933C30.8236 14.3991 30.5939 15.9304 30.3387 17.4362C30.109 18.8399 29.8793 20.2181 29.6496 21.6218C29.5986 22.0046 29.522 22.3875 29.471 22.7703C29.4455 22.8724 29.4199 22.8979 29.3178 22.8979C28.935 22.8724 28.5522 22.8724 28.1438 22.8724Z" fill="#C2CFE0"/>
<path d="M27.4037 5.3131C27.225 5.3131 27.0464 5.3131 26.8422 5.3131C26.7401 5.3131 26.689 5.33862 26.689 5.44071C26.6125 6.00219 26.5104 6.56368 26.4338 7.12516C26.2807 8.14605 26.1276 9.14141 25.9744 10.1623C25.9744 10.2389 25.9489 10.2644 25.8723 10.2644C25.4129 10.2644 24.9791 10.2644 24.5197 10.2644C24.4431 10.2644 24.4176 10.2389 24.4431 10.1623C24.6983 8.60544 24.928 7.02308 25.1832 5.46623C25.2088 5.36414 25.1832 5.3131 25.0812 5.33862C24.8515 5.33862 24.6473 5.33862 24.4176 5.33862C24.341 5.33862 24.3155 5.33862 24.3155 5.23653C24.3665 4.87922 24.4176 4.54744 24.4686 4.19013C24.4686 4.11356 24.5197 4.06252 24.5962 4.06252C24.8259 4.06252 25.0556 4.06252 25.2598 4.06252C25.3619 4.06252 25.3619 4.037 25.3874 3.96043C25.4385 3.5776 25.4895 3.19477 25.5661 2.81194C25.7702 1.89315 26.3828 1.33166 27.3016 1.17853C27.6844 1.12748 28.0417 1.10196 28.4245 1.15301C28.5522 1.15301 28.6032 1.20405 28.5777 1.33166C28.5777 1.66345 28.5777 2.02076 28.5777 2.35254C28.5777 2.42911 28.5522 2.45463 28.4756 2.42911C28.2714 2.40359 28.0672 2.37806 27.8631 2.40359C27.4037 2.42911 27.0974 2.65881 27.0208 3.1182C26.9698 3.39895 26.9187 3.70521 26.8677 4.01148C26.8422 4.08804 26.8677 4.11356 26.9443 4.11356C27.2761 4.11356 27.5823 4.11356 27.9141 4.11356C28.0162 4.11356 28.0417 4.13909 28.0162 4.21565C28.0162 4.57296 28.0162 4.90475 28.0162 5.26205C28.0162 5.36414 27.9907 5.36414 27.8886 5.36414C27.761 5.3131 27.5823 5.3131 27.4037 5.3131Z" fill="#C2CFE0"/>
<path d="M19.0324 5.23677C19.2111 5.05812 19.3642 4.87946 19.5429 4.70081C19.9512 4.31798 20.4362 4.03724 20.9976 3.93515C21.0487 3.93515 21.0997 3.93515 21.1253 3.90963C21.2018 3.8841 21.2273 3.90963 21.2273 4.01171C21.2273 4.44559 21.2273 4.87946 21.2273 5.31334C21.2273 5.41543 21.2018 5.44095 21.0997 5.44095C20.5638 5.49199 20.0789 5.67065 19.6195 5.97691C19.3642 6.15557 19.1345 6.35974 18.9048 6.58944C18.8538 6.64048 18.8283 6.71705 18.8027 6.79362C18.6241 7.89106 18.471 8.98851 18.2923 10.086C18.2668 10.188 18.2413 10.2136 18.1392 10.2136C17.7053 10.2136 17.2714 10.2136 16.8376 10.2136C16.7355 10.2136 16.7099 10.188 16.7355 10.086C16.9907 8.42703 17.2459 6.76809 17.5011 5.10916C17.5522 4.77738 17.6032 4.44559 17.6543 4.1138C17.6543 4.03724 17.6798 4.01171 17.7819 4.01171C18.1647 4.01171 18.522 4.01171 18.9048 4.01171C18.9814 4.01171 19.0069 4.03724 19.0069 4.1138C19.0324 4.52216 19.0324 4.87946 19.0324 5.23677Z" fill="#C2CFE0"/>
<path d="M21.993 10.2645C21.7888 10.2645 21.5591 10.2645 21.3549 10.2645C21.2529 10.2645 21.2018 10.239 21.2273 10.1369C21.3294 9.52437 21.406 8.91184 21.5081 8.29931C21.6867 7.20186 21.8399 6.07889 22.0185 4.98145C22.0696 4.72623 22.0951 4.44548 22.1461 4.19026C22.1461 4.1137 22.1972 4.06265 22.2737 4.06265C22.7076 4.06265 23.1415 4.06265 23.5754 4.06265C23.6774 4.06265 23.703 4.08817 23.6774 4.19026C23.4477 5.72159 23.218 7.25291 22.9628 8.75871C22.8863 9.2181 22.8097 9.70302 22.7586 10.1624C22.7586 10.239 22.7076 10.2645 22.6566 10.2645C22.4269 10.239 22.1972 10.2645 21.993 10.2645Z" fill="#C2CFE0"/>
<path d="M29.7007 4.06272C29.9304 4.06272 30.1601 4.06272 30.3643 4.06272C30.4664 4.06272 30.4664 4.08825 30.4664 4.16481C30.1856 6.05344 29.8794 7.9676 29.5986 9.85623C29.5731 9.95831 29.5476 10.0604 29.5476 10.1625C29.5476 10.2391 29.4965 10.2646 29.4455 10.2646C28.9861 10.2646 28.5522 10.2646 28.0928 10.2646C27.9652 10.2646 27.9907 10.2135 28.0163 10.137C28.0673 9.75414 28.1439 9.37131 28.1949 8.98848C28.3736 7.81446 28.5522 6.66597 28.7309 5.49196C28.8074 5.05808 28.8585 4.62421 28.9351 4.16481C28.9606 4.06272 28.9861 4.0372 29.0882 4.0372C29.2668 4.06272 29.4965 4.06272 29.7007 4.06272Z" fill="#C2CFE0"/>
<path d="M21.7633 18.1508C21.457 17.3596 21.0232 16.645 20.4872 16.007C19.8492 15.2158 19.0835 14.5777 18.2157 14.0673C18.2157 14.0673 18.1902 14.0673 18.1647 14.0418C17.6032 13.6845 17.0162 13.4292 16.4037 13.2251C16.1229 13.123 15.8167 13.0209 15.5359 12.9443C15.4594 12.9188 15.4338 12.8933 15.4338 12.8167C15.4338 12.7401 15.4849 12.7401 15.5614 12.7401C16.9396 12.7401 18.3434 12.7401 19.7215 12.7401C20.4872 12.7401 20.7935 13.123 20.9211 13.8376C21.1763 15.2158 21.457 16.594 21.7378 17.9722C21.7888 18.0232 21.7888 18.0742 21.7633 18.1508Z" fill="#C2CFE0"/>
<path d="M24.1624 2.0209C24.1624 2.70999 23.3967 3.22043 22.7587 2.96521C22.4013 2.81208 22.2227 2.48029 22.3248 2.07194C22.4524 1.53598 23.0139 1.17867 23.5498 1.28076C23.9327 1.3318 24.1624 1.61254 24.1624 2.0209Z" fill="#C2CFE0"/>
<path d="M30.9258 2.02073C30.9258 2.70983 30.1856 3.22027 29.5476 2.99057C29.1648 2.86296 28.9861 2.48013 29.0882 2.07177C29.2158 1.53581 29.8028 1.1785 30.3643 1.30611C30.7216 1.35716 30.9513 1.6379 30.9258 2.02073Z" fill="#C2CFE0"/>
<path d="M47.7447 22.7703C47.6682 22.3875 47.5916 22.0046 47.515 21.6218C46.9025 18.6868 46.29 15.7773 45.6775 12.8422C45.6519 12.7657 45.6264 12.7401 45.5499 12.7401C44.8863 12.7401 44.1972 12.7401 43.5336 12.7401C42.9211 12.7401 42.4872 13.0209 42.2575 13.6079C41.058 16.4664 39.884 19.2993 38.6844 22.1578C38.5823 22.3875 38.5058 22.6172 38.4037 22.8469C38.4292 22.8469 38.4292 22.8724 38.4547 22.8724C39.3225 22.8724 40.2157 22.8724 41.0835 22.8724C41.1601 22.8724 41.1856 22.8213 41.2111 22.7703C41.3642 22.3364 41.5174 21.9026 41.6705 21.4687C41.696 21.3666 41.7471 21.3411 41.8492 21.3411C42.87 21.3411 43.9164 21.3411 44.9373 21.3411C45.0394 21.3411 45.0649 21.3666 45.0905 21.4687C45.167 21.9026 45.2691 22.3364 45.3712 22.7703C45.3967 22.8469 45.4222 22.8724 45.4988 22.8724C46.2389 22.8724 47.0046 22.8724 47.7447 22.8724C47.7447 22.8724 47.7447 22.8469 47.7447 22.7703ZM44.4269 19.2738C43.8144 19.2738 43.1763 19.2738 42.5638 19.2738C42.5127 19.2738 42.4872 19.2738 42.4106 19.2738C42.87 18.0232 43.3294 16.7726 43.7888 15.4965C43.8909 16.007 43.993 16.4664 44.0696 16.9258C44.2227 17.6659 44.3758 18.406 44.529 19.1207C44.58 19.2483 44.5545 19.2738 44.4269 19.2738Z" fill="#C2CFE0"/>
<path d="M43.6358 1C43.2019 1.07657 42.7425 1.15313 42.3086 1.20418C42.2065 1.2297 42.1555 1.25522 42.13 1.35731C42.0024 2.2761 41.8492 3.1949 41.7216 4.08817C41.7216 4.16473 41.6961 4.19025 41.6195 4.16473C41.1601 4.0116 40.7007 3.96056 40.2158 3.96056C39.4246 3.98608 38.7355 4.29234 38.1996 4.87935C37.6636 5.44083 37.3573 6.12993 37.1787 6.89559C37.0256 7.55916 36.949 8.24826 37.1276 8.91183C37.3573 9.83063 37.9954 10.3411 38.9652 10.3666C39.6798 10.3666 40.2413 10.0858 40.7773 9.62645C40.8539 9.54988 40.9304 9.47332 41.0325 9.39675C41.0325 9.65197 41.0325 9.88167 41.0325 10.1114C41.0325 10.1879 41.058 10.239 41.1346 10.239C41.5174 10.239 41.8747 10.239 42.2576 10.239C42.3341 10.239 42.3597 10.2135 42.3852 10.1369C42.4873 9.37123 42.6149 8.60557 42.7425 7.83991C42.9211 6.66589 43.0998 5.5174 43.2785 4.34339C43.4571 3.24594 43.6102 2.17401 43.7889 1.07657C43.7379 1 43.7379 1 43.6358 1ZM41.4919 5.59397C41.3643 6.41067 41.2367 7.20186 41.1091 8.01856C41.0836 8.12065 41.058 8.17169 41.007 8.24826C40.7007 8.529 40.3945 8.78422 40.0116 8.93735C39.8075 9.01392 39.6033 9.03944 39.3991 8.9884C38.9652 8.91183 38.71 8.60557 38.6334 8.09513C38.5569 7.35499 38.6845 6.64037 39.0673 6.00232C39.3736 5.49188 39.8075 5.21114 40.471 5.23666C40.7773 5.23666 41.1091 5.31322 41.4153 5.46636C41.4664 5.49188 41.5174 5.5174 41.4919 5.59397Z" fill="#C2CFE0"/>
<path d="M36.5405 5.95142C36.4895 5.44098 36.3364 4.95606 35.9535 4.54771C35.4941 4.06279 34.9071 3.90965 34.2691 3.93518C33.1461 3.9607 32.2784 4.44562 31.6403 5.36441C31.0278 6.25768 30.8236 7.27856 30.9257 8.35049C30.9767 8.9375 31.2064 9.47346 31.6914 9.85629C32.1508 10.2391 32.7122 10.3667 33.2993 10.3923C34.2691 10.4433 35.1624 10.1881 35.9791 9.70316C36.0301 9.67763 36.0812 9.65211 36.0812 9.57555C36.0812 9.19272 36.0812 8.83541 36.0812 8.42706C35.9025 8.52914 35.7494 8.60571 35.5962 8.7078C34.9582 9.03958 34.2946 9.26928 33.5545 9.16719C33.0951 9.11615 32.7378 8.91197 32.5591 8.4781C32.4315 8.19736 32.4315 7.91661 32.4315 7.61035C32.4315 7.48274 32.457 7.45722 32.5846 7.45722C33.8097 7.45722 35.0603 7.45722 36.2853 7.45722C36.3874 7.45722 36.4129 7.4317 36.4385 7.32961C36.5661 6.87021 36.5916 6.41081 36.5405 5.95142ZM34.9837 6.48738C34.6009 6.48738 34.2436 6.48738 33.8607 6.48738C33.4779 6.48738 33.1206 6.48738 32.7378 6.48738C32.6867 6.48738 32.6357 6.5129 32.6612 6.41081C32.7888 5.95142 32.993 5.51754 33.4013 5.21128C33.6821 5.0071 34.0139 4.93054 34.3712 5.0071C34.8051 5.10919 34.9837 5.41545 35.0603 5.82381C35.0858 6.00246 35.0858 6.18112 35.1113 6.35977C35.1113 6.46186 35.0858 6.48738 34.9837 6.48738Z" fill="#C2CFE0"/>
<path d="M16.3271 5.64511C16.174 4.85392 15.7656 4.29244 14.9489 4.03722C13.8004 3.67991 12.4733 4.11378 11.7076 5.0581C10.9164 6.05346 10.6357 7.17643 10.7888 8.42701C10.8909 9.37133 11.4269 10.0094 12.3712 10.2391C13.6218 10.5453 14.7958 10.2901 15.8677 9.65207C15.8932 9.62655 15.9443 9.60102 15.9443 9.54998C15.9443 9.16715 15.9443 8.78432 15.9443 8.40149C15.7656 8.50358 15.5614 8.60567 15.3828 8.70775C14.7703 9.01402 14.1322 9.21819 13.4176 9.14163C12.9582 9.09058 12.5754 8.86089 12.3967 8.42701C12.2946 8.14627 12.2691 7.86553 12.2691 7.58478C12.2691 7.48269 12.2946 7.45717 12.3967 7.45717C13.29 7.45717 14.1832 7.45717 15.0765 7.45717C15.4338 7.45717 15.7911 7.45717 16.1484 7.45717C16.225 7.45717 16.2505 7.43165 16.2761 7.35508C16.4037 6.7936 16.4292 6.20659 16.3271 5.64511ZM14.8213 6.48733C14.4385 6.48733 14.0812 6.48733 13.6983 6.48733C13.3155 6.48733 12.9582 6.48733 12.5754 6.48733C12.4988 6.48733 12.4733 6.46181 12.4988 6.38525C12.6264 6.00242 12.7795 5.61959 13.1113 5.33884C13.4176 5.0581 13.8004 4.93049 14.2088 5.03258C14.4895 5.08362 14.6937 5.26228 14.7958 5.54302C14.9234 5.82376 14.9234 6.13003 14.9234 6.43629C14.9234 6.51286 14.8723 6.48733 14.8213 6.48733Z" fill="#C2CFE0"/>
<path d="M49.7355 6.56367C49.6334 6.05323 49.3527 5.6704 48.8167 5.51727C48.4084 5.38966 48.0255 5.4407 47.6427 5.59384C47.3875 5.69592 47.1578 5.87458 46.9281 6.05323C47.0812 5.13444 47.2088 4.24117 47.3364 3.3479C47.362 3.24581 47.3364 3.22029 47.2344 3.24581C46.9026 3.29685 46.5963 3.3479 46.2645 3.39894C46.188 3.39894 46.1624 3.44998 46.1369 3.52655C46.0093 4.41982 45.8562 5.33862 45.7286 6.23189C45.5499 7.45694 45.3457 8.65648 45.1671 9.88154C45.1416 9.98363 45.1671 10.0091 45.2692 10.0602C45.9583 10.2644 46.6729 10.392 47.413 10.3154C48.1021 10.2388 48.6891 9.98363 49.123 9.42214C49.7355 8.55439 49.9142 7.58455 49.7355 6.56367ZM48.6125 7.45694C48.587 7.81425 48.536 8.14604 48.4084 8.47783C48.1531 9.1414 47.6427 9.42214 46.9281 9.34558C46.8005 9.32005 46.6729 9.29453 46.5453 9.26901C46.4687 9.24349 46.4432 9.19244 46.4432 9.11588C46.5197 8.65648 46.5708 8.22261 46.6473 7.76321C46.6729 7.61008 46.6984 7.48247 46.7239 7.32933C46.7239 7.15068 46.8005 7.02307 46.9281 6.92098C47.1578 6.74233 47.413 6.56367 47.7193 6.48711C48.1021 6.41054 48.4084 6.58919 48.536 6.9465C48.587 7.12516 48.6125 7.30381 48.6125 7.45694Z" fill="#C2CFE0"/>
</g>
<defs>
<clipPath id="clip0">
<rect width="51.0441" height="22" fill="white" transform="translate(4 1)"/>
</clipPath>
</defs>
</svg>
